<?xml version="1.0" ?><!DOCTYPE svg  PUBLIC '-//W3C//DTD SVG 1.1//EN'  'http://www.w3.org/Graphics/SVG/1.1/DTD/svg11.dtd'><svg  height="20px" width="20px" fill="#ffffff" viewBox="0 0 512 512" enable-background="new 0 0 512 512" id="Layer_1" version="1.1" xml:space="preserve" xmlns="http://www.w3.org/2000/svg" xmlns:xlink="http://www.w3.org/1999/xlink"><g><g><path d="M134.593,300.359H106.08c-5.523,0-10-4.478-10-10v-57.828c0-5.522,4.477-10,10-10h28.513c5.523,0,10,4.478,10,10v57.828    C144.593,295.882,140.116,300.359,134.593,300.359z M116.08,280.359h8.513v-37.828h-8.513V280.359z"/></g><g><path d="M405.92,347.385c-5.523,0-10-4.478-10-10V171.029c0-5.522,4.477-10,10-10s10,4.478,10,10v166.355    C415.92,342.907,411.443,347.385,405.92,347.385z"/></g><g><path d="M376.396,347.385c-0.672,0-1.348-0.067-2.018-0.206l-215.01-44.299c-4.647-0.957-7.981-5.049-7.981-9.794v-66.932    c0-4.566,3.093-8.553,7.516-9.687l215.01-55.129c2.993-0.768,6.173-0.108,8.614,1.786s3.87,4.811,3.87,7.9v166.359    c0,3.006-1.353,5.853-3.683,7.752C380.914,346.604,378.678,347.385,376.396,347.385z M171.387,284.937l195.01,40.178V183.913    l-195.01,50.001V284.937z"/></g><g><path d="M245.917,350.975h-41.33c-12.131,0-22-9.869-22-22v-29.459c0-3.006,1.352-5.853,3.683-7.752    c2.33-1.899,5.393-2.651,8.335-2.042l65.33,13.459c4.647,0.957,7.982,5.049,7.982,9.794v16    C267.917,341.105,258.048,350.975,245.917,350.975z M202.587,311.786v17.188c0,1.103,0.897,2,2,2h41.33c1.103,0,2-0.897,2-2    v-7.851L202.587,311.786z"/></g></g></svg>